<svg width="11" height="11" viewBox="0 0 11 11" fill="none" xmlns="http://www.w3.org/2000/svg">
<path d="M5.86495 1.25507L6.74495 3.01507C6.86495 3.26007 7.18495 3.49507 7.45495 3.54007L9.04995 3.80507C10.07 3.97507 10.31 4.71507 9.57495 5.44507L8.33495 6.68507C8.12495 6.89507 8.00995 7.30007 8.07495 7.59007L8.42995 9.12507C8.70995 10.3401 8.06495 10.8101 6.98995 10.1751L5.49495 9.29007C5.22495 9.13007 4.77995 9.13007 4.50495 9.29007L3.00995 10.1751C1.93995 10.8101 1.28995 10.3351 1.56995 9.12507L1.92495 7.59007C1.98995 7.30007 1.87495 6.89507 1.66495 6.68507L0.424955 5.44507C-0.305046 4.71507 -0.0700454 3.97507 0.949955 3.80507L2.54495 3.54007C2.80995 3.49507 3.12995 3.26007 3.24995 3.01507L4.12995 1.25507C4.60995 0.300068 5.38995 0.300068 5.86495 1.25507Z" fill="#F3F3F3"/>
</svg>
